<?xml version="1.0" encoding="UTF-8"?>
<svg xmlns="http://www.w3.org/2000/svg" width="128" height="128" viewBox="0 0 128 128" role="img" aria-label="TeeBotus settings icon">
  <defs>
    <linearGradient id="panel" x1="20" y1="16" x2="108" y2="112" gradientUnits="userSpaceOnUse">
      <stop offset="0" stop-color="#123f52"/>
      <stop offset="0.55" stop-color="#24745f"/>
      <stop offset="1" stop-color="#8b8a2f"/>
    </linearGradient>
    <linearGradient id="screen" x1="38" y1="39" x2="90" y2="83" gradientUnits="userSpaceOnUse">
      <stop offset="0" stop-color="#fff4c7"/>
      <stop offset="1" stop-color="#c5ecff"/>
    </linearGradient>
  </defs>
  <rect x="14" y="18" width="100" height="86" rx="24" fill="url(#panel)"/>
  <path d="M41 100 30 120 59 105Z" fill="#24745f"/>
  <path d="M41 39h46c11 0 20 9 20 20v14c0 11-9 20-20 20H41c-11 0-20-9-20-20V59c0-11 9-20 20-20Z" fill="url(#screen)"/>
  <circle cx="49" cy="66" r="8" fill="#123f52"/>
  <circle cx="79" cy="66" r="8" fill="#123f52"/>
  <path d="M51 82c8 6 18 6 26 0" fill="none" stroke="#123f52" stroke-width="6" stroke-linecap="round"/>
  <path d="m47 39-9-19M81 39l9-19" fill="none" stroke="#f0c94a" stroke-width="8" stroke-linecap="round"/>
  <circle cx="38" cy="20" r="8" fill="#f0c94a"/>
  <circle cx="90" cy="20" r="8" fill="#f0c94a"/>
  <path d="M100 31h10M105 26v10M18 36h10M23 31v10M101 101h10M106 96v10" stroke="#c5ecff" stroke-width="5" stroke-linecap="round"/>
</svg>
