<?xml version="1.0" encoding="UTF-8"?>
<svg xmlns="http://www.w3.org/2000/svg" width="64" height="64" viewBox="0 0 64 64" role="img" aria-label="TeeBotus">
  <defs>
    <linearGradient id="body" x1="10" y1="8" x2="54" y2="58" gradientUnits="userSpaceOnUse">
      <stop offset="0" stop-color="#164e63"/>
      <stop offset="0.58" stop-color="#256d63"/>
      <stop offset="1" stop-color="#5f7d2a"/>
    </linearGradient>
    <linearGradient id="glow" x1="16" y1="14" x2="48" y2="46" gradientUnits="userSpaceOnUse">
      <stop offset="0" stop-color="#fff7c2"/>
      <stop offset="1" stop-color="#b8e4ff"/>
    </linearGradient>
  </defs>
  <rect x="6" y="8" width="52" height="44" rx="13" fill="url(#body)"/>
  <path d="M19 50 14 60 29 52Z" fill="#256d63"/>
  <path d="M20 20h24a7 7 0 0 1 7 7v8a7 7 0 0 1-7 7H20a7 7 0 0 1-7-7v-8a7 7 0 0 1 7-7Z" fill="#f8f3dc"/>
  <circle cx="24" cy="31" r="4" fill="#164e63"/>
  <circle cx="40" cy="31" r="4" fill="#164e63"/>
  <path d="M25 39c4 3 10 3 14 0" fill="none" stroke="#164e63" stroke-width="3" stroke-linecap="round"/>
  <path d="M24 20 19 11M40 20l5-9" fill="none" stroke="#f0c94a" stroke-width="4" stroke-linecap="round"/>
  <circle cx="19" cy="11" r="4" fill="#f0c94a"/>
  <circle cx="45" cy="11" r="4" fill="#f0c94a"/>
  <path d="M49 45c4 0 7-3 7-7s-3-7-7-7" fill="none" stroke="url(#glow)" stroke-width="4" stroke-linecap="round"/>
  <circle cx="51" cy="17" r="3" fill="#b8e4ff"/>
  <circle cx="13" cy="43" r="2.5" fill="#f0c94a"/>
</svg>
